<svg width="151" height="71" viewBox="0 0 151 71" fill="none" xmlns="http://www.w3.org/2000/svg">
<path d="M2.35388 36.075C2.19763 35.8842 2.05746 35.7104 1.9334 35.5546C2.08294 35.386 2.25391 35.1955 2.44607 34.9845C3.31029 34.0352 4.60244 32.6718 6.29997 31.032C9.69616 27.7513 14.7082 23.3712 21.1555 18.9907C34.0563 10.2256 52.6409 1.5 75.5 1.5C99.8729 1.5 118.454 10.2359 130.953 18.9791C137.204 23.3519 141.928 27.723 145.085 30.9946C146.662 32.6299 147.847 33.989 148.633 34.934C148.84 35.1823 149.019 35.402 149.17 35.5905C149.057 35.7617 148.926 35.9572 148.776 36.1751C148.132 37.1106 147.145 38.4597 145.786 40.085C143.07 43.3361 138.873 47.6876 132.983 52.044C121.218 60.7453 102.651 69.5 75.5 69.5C50.8747 69.5 32.295 60.7624 19.8626 52.0229C13.6442 47.6515 8.96792 43.282 5.85147 40.012C4.2937 38.3775 3.12711 37.0192 2.35388 36.075Z" fill="#77B900" fill-opacity="0.25" stroke="#77B900" stroke-width="3"/>
</svg>
